<svg xmlns="http://www.w3.org/2000/svg" style="shape-rendering:geometricPrecision;text-rendering:geometricPrecision;image-rendering:optimizeQuality;fill-rule:evenodd;clip-rule:evenodd" viewBox="0 0 755 425" >
  <path style="opacity:.518" fill="#7a8893" d="M298.5 4.5q-44.757-.497-89 1h-2q-19.498.55-39 1a644 644 0 0 1 36-2.5q47.254-1.246 94 .5"/>
  <path style="opacity:.641" fill="#455c72" d="M209.5 5.5a1981 1981 0 0 1 89-1 751 751 0 0 1 77 6q3.015.776 4 2a1073 1073 0 0 0-52-4h-1a503 503 0 0 0-45-2.5q-35.997-.75-72-.5"/>
  <path style="opacity:.761" fill="#4d6277" d="M207.5 5.5a3384 3384 0 0 0-119 9.5q-6.206 1.26-12 2.5-3.202-.53-4 2.5 2.034 2.35 2 5.5h3a13.94 13.94 0 0 1 6 3 105 105 0 0 0-9-1q0-1-1-1 .11-2.29-2-3-4.588-5.404 2-8.5 2.45-.74 5-.5 7.875.295 15-2 37.208-3.9 75-6 19.502-.45 39-1"/>
  <path style="opacity:1" fill="#2977b9" d="M326.5 8.5h1q.626 1.083 2 1.5l13 1q-5.528 1.372 1 2a290 290 0 0 1 24 0q12.442 1.993 25 4a38 38 0 0 1 6.5 2.5q1.114 2.91-.5 5.5l3 1.5q1.532.752.5 2a44 44 0 0 0-5.5-3q-1.329-1.237-1-3a55 55 0 0 1-12 1q-8.364-.556-16-3a497 497 0 0 0-50.5-7 9271 9271 0 0 0-77.5.5 332 332 0 0 1-36 2q-2.822.297-5 1.5a5743 5743 0 0 0-35 4.5q-10.718 1.97-13 12.5-2.9 1.713-4.5 5a613 613 0 0 0-11 26 25.2 25.2 0 0 0 0 10 482 482 0 0 0 32 42 461 461 0 0 1 15.5 24q-2.94 5.96-6 0a7.3 7.3 0 0 1-3.5 2 22.3 22.3 0 0 1-7.5-4 1813 1813 0 0 0-12-3q-2.665-1.65-6-2.5-1.255-1.517-1-3.5-10.968.909-22-1-6.294.433-13 .5 2.316.434 4 2a49 49 0 0 0-15 4.5 51.8 51.8 0 0 1-8-9q-1.238-1.329-3-1a10.1 10.1 0 0 0-1.5-6q-2.545-1.296-3.5-4-1.238-1.329-3-1 .018-3.963-4-4h-2a5.73 5.73 0 0 0-1-3q-1.166-5.862-6-9-1.5-.5-2-2a45 45 0 0 1-3-7q.255-3.618-2-6.5 2.517-3.82 2-8.5a218 218 0 0 1 20-29 114 114 0 0 0 8-9.5q1.866-.684 2.5 1.5 1.431-10.32 10.5-17a30 30 0 0 1 2-5 59.3 59.3 0 0 1 21-2.5q2.78 2.503 6 .5a3.65 3.65 0 0 0-1-1.5q39.375-4.055 79-5 57.51-1.065 115 .5"/>
  <path style="opacity:.243" fill="#748293" d="M375.5 10.5q11.588.65 22 5-9.184-2.07-18-3-.985-1.224-4-2"/>
  <path style="opacity:.604" fill="#aab3bc" d="M93.5 12.5q-7.125 2.296-15 2 7.154-2.084 15-2"/>
  <path style="opacity:1" fill="#2c77b5" d="M77.5 25.5h-3q.034-3.15-2-5.5.798-3.03 4-2.5 10.485-.749 21-1v3l-6 1 1 6h-6v-3z"/>
  <path style="opacity:.727" fill="#5f6367" d="M403.5 17.5q8.314 1.264 15 6 1.65 1.588 4 2.5a2.43 2.43 0 0 1-2 .5q-7.024-3.755-15-5-1.083-1.577-3-2-1.314.195-2-1 1.237-1.329 3-1"/>
  <path style="opacity:1" fill="#3d5a76" d="M292.5 63.5q.39 8.508 1 17a4524 4524 0 0 1-103-2h77q12.225 1.49 25 1 .426-2.872-1-5-.417-11.844-3-23a397 397 0 0 0-2-28h-87q-3.839.453-7-1 47.48-1.395 95-1a488 488 0 0 0 5 42"/>
  <path style="opacity:1" fill="#2f74ad" d="M295.5 31.5q-2.328-2.303-4-5.5-1-1-2 0 .655 9.155 4 18.5a112 112 0 0 0-1 19 488 488 0 0 1-5-42q-47.52-.395-95 1-3.422.634-5-2a807 807 0 0 1 106-2 38.5 38.5 0 0 1 2 13"/>
  <path style="opacity:1" fill="#dfe6ed" d="M199.5 24.5v-1h87a397 397 0 0 1 2 28q-2.457-6.563-2.5-14-3.074-3.84-3.5-9 2.103-2.014-1-2.5-41.001-.798-82-1.5"/>
  <path style="opacity:1" fill="#e9e9ea" d="M443.5 56.5q2.521 2.262 6 3a9206 9206 0 0 0 19 10.5q1.647 1.155 0 2.5-2.867.111-3.5 3a85 85 0 0 0-.5 13 487 487 0 0 1-36-1q-1.663-1.185-4-1.5-9.987-.75-20-.5a13630 13630 0 0 0-79-4.5 6607 6607 0 0 1-17-49.5 82 82 0 0 0-2-10q40.995.464 81 9.5a173 173 0 0 1 21 8 428 428 0 0 0 35 17.5"/>
  <path style="opacity:1" fill="#3371a5" d="M367.5 20.5a32.4 32.4 0 0 0-8 .5 264.3 264.3 0 0 1 44 10.5 1280 1280 0 0 0 43 20q1.185 1.94 3 3.5a287 287 0 0 1 27 14.5 296 296 0 0 0 27 19.5q3.634 2.355 4 6.5h-2q-5.598-2.445-12-3 4.12.47 8-1a34.3 34.3 0 0 0-11-8q-9.422-7.355-20-14a61 61 0 0 0-21-10q-3.479-.738-6-3 .197-1.314-1-2a613 613 0 0 0-52-24.5 364.8 364.8 0 0 0-86-10.5l2 12q-1.471-2.715-4.5-4a41 41 0 0 1-.5-9q-2.872-.427-5 1-.814-.09-1-1l11-1a595 595 0 0 0 45 1.5 1077 1077 0 0 0-153-1.5q2.178-1.203 5-1.5a332 332 0 0 0 36-2 9271 9271 0 0 1 77.5-.5 497 497 0 0 1 50.5 7"/>
  <path style="opacity:1" fill="#eaeaea" d="M199.5 24.5q40.999.702 82 1.5 3.103.486 1 2.5.426 5.16 3.5 9 .043 7.437 2.5 14 2.583 11.156 3 23v4h-28a977 977 0 0 0-72-2q.356-1.936-1-3-.127-8.455-3-16-.237-14.46-4-28v-5z"/>
  <path style="opacity:1" fill="#3071a7" d="M207.5 5.5h2q36.003-.25 72 .5a503 503 0 0 1 45 2.5 2516 2516 0 0 0-115-.5q-39.625.945-79 5 .686.621 1 1.5-3.22 2.003-6-.5a59.3 59.3 0 0 0-21 2.5 30 30 0 0 0-2 5q-9.069 6.68-10.5 17-.634-2.184-2.5-1.5a114 114 0 0 1-8 9.5q4.968-7.915 10-16a3.65 3.65 0 0 0-1-1.5 41 41 0 0 0-9-.5 13.94 13.94 0 0 0-6-3l9-2v3h6l-1-6 6-1v-3q-10.515.251-21 1 5.794-1.24 12-2.5a3384 3384 0 0 1 119-9.5"/>
  <path style="opacity:1" fill="#e7e8e9" d="M178.5 25.5a6681 6681 0 0 0 7 51h-46q-1.488-4.918-.5-10a376 376 0 0 0 10.5-24q4.504-8.275 12-14.5 8.18-3.177 17-2.5"/>
  <path style="opacity:1" fill="#165182" d="M367.5 20.5q7.636 2.444 16 3a478 478 0 0 1 19 6.5q.834.575 1 1.5a264.3 264.3 0 0 0-44-10.5 32.4 32.4 0 0 1 8-.5"/>
  <path style="opacity:.141" fill="#bcbdc0" d="M429.5 28.5q2.82-.405 4 2-2.48-.24-4-2"/>
  <path style="opacity:.376" fill="#a6a7a6" d="M71.5 23.5q2.11.71 2 3a7458 7458 0 0 1-12 11q3.84-6.105 9.5-11 .725-1.422.5-3"/>
  <path style="opacity:1" fill="#e6e7e7" d="M74.5 27.5q4.527.306 9 1a42 42 0 0 0 6 2q1.532.752.5 2A3552 3552 0 0 1 57.5 79q-8.465.025-17-.5-6.098-.017-11-2a6.54 6.54 0 0 0 3-3 233 233 0 0 0 13-15 25.6 25.6 0 0 0 6-6 641 641 0 0 1 23-25"/>
  <path style="opacity:1" fill="#3e6b95" d="M187.5 20.5q1.578 2.634 5 2 3.161 1.453 7 1v1h-16v5q1.178 10.984.5 22a301 301 0 0 0-5-27q-.598.343-.5 1-8.82-.678-17 2.5-7.496 6.225-12 14.5a41.5 41.5 0 0 0 1-8q4.209-5.456 10-9.5a118 118 0 0 1 27-4.5"/>
  <path style="opacity:1" fill="#175385" d="M403.5 31.5a267 267 0 0 1 15.5 5q14.463 6.54 27.5 15a1280 1280 0 0 1-43-20"/>
  <path style="opacity:1" fill="#466582" d="M443.5 56.5a428 428 0 0 1-35-17.5 173 173 0 0 0-21-8 386.4 386.4 0 0 0-81-9.5 82 82 0 0 1 2 10h-2l-2-12a364.8 364.8 0 0 1 86 10.5 613 613 0 0 1 52 24.5q1.197.686 1 2"/>
  <path style="opacity:1" fill="#dcdee1" d="M405.5 21.5q7.976 1.245 15 5 57.87 24.422 110 59-9.257.665-17-4.5-51.851-33.43-109-57.5.544-1.025 1-2"/>
  <path style="opacity:1" fill="#545353" d="M73.5 26.5q1 0 1 1a641 641 0 0 0-23 25q-1.538-.595-.5-2 5.758-4.487 8.5-11 .5-1.5 2-2 5.931-5.425 12-11"/>
  <path style="opacity:.671" fill="#7c7c7c" d="M418.5 23.5q6.123 1.314 11 5 1.52 1.76 4 2a344 344 0 0 1 39 18q.71 2.11 3 2a396 396 0 0 1 55 31.5q3.266 1.803 7 1.5a68 68 0 0 1-7 2q-52.13-34.578-110-59a2.43 2.43 0 0 0 2-.5q-2.35-.912-4-2.5"/>
  <path style="opacity:.118" fill="#c4c5c4" d="M472.5 48.5q2.29-.11 3 2-2.29.11-3-2"/>
  <path style="opacity:1" fill="#416688" d="M183.5 29.5q3.763 13.54 4 28a208 208 0 0 0 2 20h-3a530 530 0 0 1-46-1h45a6681 6681 0 0 1-7-51q-.098-.657.5-1a301 301 0 0 1 5 27q.678-11.016-.5-22"/>
  <path style="opacity:1" fill="#185383" d="M446.5 51.5a94 94 0 0 1 12 5.5 257 257 0 0 1 18 12.5 287 287 0 0 0-27-14.5 14.7 14.7 0 0 1-3-3.5"/>
  <path style="opacity:.992" fill="#787878" d="M59.5 39.5q-2.742 6.513-8.5 11-1.038 1.405.5 2a25.6 25.6 0 0 1-6 6q.098-.658-.5-1a31 31 0 0 0-4.5 3q7.846-11.853 19-21"/>
  <path style="opacity:1" fill="#3a5269" d="M83.5 28.5a41 41 0 0 1 9 .5q.685.621 1 1.5a5256 5256 0 0 1-10 16 218 218 0 0 0-20 29q-2.758 1.512-4 4.5-9.983.07-20-.5a43.1 43.1 0 0 0-13 1q-4.487 7.55-11 13 3.282-9.578 11-16 1.438-.68 2.5-2 .598.342.5 1 4.902 1.983 11 2 8.535.525 17 .5A3552 3552 0 0 0 90 32.5q1.032-1.248-.5-2a42 42 0 0 1-6-2"/>
  <path style="opacity:1" fill="#597188" d="M187.5 57.5q2.873 7.545 3 16v4a421 421 0 0 1 41 1h-41q-1 0-1-1a208 208 0 0 1-2-20"/>
  <path style="opacity:1" fill="#195384" d="M296.5 19.5a1478 1478 0 0 0 20 92 284 284 0 0 1 2 30h-1q-1.831-38.146-14-74-2.309-18.565-8-36a38.5 38.5 0 0 0-2-13 807 807 0 0 0-106 2q-13.75.675-27 4.5-5.791 4.044-10 9.5 2.282-10.53 13-12.5a5743 5743 0 0 1 35-4.5 1077 1077 0 0 1 153 1.5 595 595 0 0 1-45-1.5l-11 1q.186.91 1 1"/>
  <path style="opacity:.416" fill="#909091" d="M40.5 60.5q-1.38 3.885-5 6 1.38-3.885 5-6"/>
  <path style="opacity:1" fill="#2978b9" d="M295.5 31.5q5.691 17.435 8 36 .038 13.864 4 27a54.5 54.5 0 0 0-1.5 13q.54 2.882 2.5 5 3.98-1.178 2-4.5a9.5 9.5 0 0 0 1.5-2.5 28 28 0 0 0 1.5 5q-2.156 2.282-2 5.5.463 6.529 2.5 12.5.749 6.481.5 13-3.888-.069-6.5-3a1984 1984 0 0 1-4 3q-57.485-1.826-110 0a18 18 0 0 0-3.5-2q-2.547 1.772-5 0-3.34-4.678-5-10h-3a4655 4655 0 0 1-14-20q2.451-1.06 4-3.5a340 340 0 0 1 35 0q.94-2.607 1-5.5-.084-3.21-2-5h-1a360 360 0 0 0-27-1.5 150 150 0 0 1-8.5-3.5 147 147 0 0 0-5 4q-1.373 8.736-4 1a120 120 0 0 0-9-11q-2.052-2.24-.5-4.5 17.261-.255 34-1.5 3.353.442 6-1h3q0 1 1 1a4524 4524 0 0 0 103 2 656 656 0 0 1-1-17 112 112 0 0 1 1-19q-3.345-9.345-4-18.5 1-1 2 0 1.672 3.197 4 5.5"/>
  <path style="opacity:1" fill="#486785" d="M449.5 59.5a61 61 0 0 1 21 10q-.129 1.495 1 2.5a4.93 4.93 0 0 1-3 .5q1.647-1.345 0-2.5a9206 9206 0 0 1-19-10.5"/>
  <path style="opacity:.949" fill="#454545" d="M45.5 58.5a233 233 0 0 1-13 15q-1.258-.513-1-2 3.13-1.627 4-5 3.62-2.115 5-6a31 31 0 0 1 4.5-3q.598.342.5 1"/>
  <path style="opacity:.553" fill="#979691" d="M35.5 66.5q-.87 3.373-4 5 .87-3.373 4-5"/>
  <path style="opacity:1" fill="#2e75af" d="M327.5 8.5q26.05 1.368 52 4 8.816.93 18 3 3.429.143 6 2-1.763-.329-3 1 .686 1.195 2 1-1.337 7.44 7 7.5a1560 1560 0 0 0 37 17 831 831 0 0 0 48 26q5.488 3.452 10 7.5a27.7 27.7 0 0 0-9-3q.125 4.24 2 8a208 208 0 0 0-21-13 257 257 0 0 0-18-12.5 94 94 0 0 0-12-5.5q-13.037-8.46-27.5-15a267 267 0 0 0-15.5-5q-.166-.925-1-1.5a478 478 0 0 0-19-6.5 55 55 0 0 0 12-1q-.329 1.763 1 3a44 44 0 0 1 5.5 3q1.032-1.248-.5-2l-3-1.5q1.614-2.59.5-5.5a38 38 0 0 0-6.5-2.5q-12.558-2.007-25-4a290 290 0 0 0-24 0q-6.528-.628-1-2l-13-1q-1.374-.417-2-1.5"/>
  <path style="opacity:1" fill="#3f5e79" d="M402.5 19.5q1.917.423 3 2-.456.975-1 2 57.149 24.07 109 57.5 7.743 5.165 17 4.5a68 68 0 0 0 7-2h17a455 455 0 0 1 42 6q.626 1.083 2 1.5 4.975.747 10 .5h2v2a1505 1505 0 0 0-63.5-9q-9.22.673-17.5 4h-1a49.8 49.8 0 0 0-12-3.5 115 115 0 0 0-12-7.5q-4.512-4.048-10-7.5a831 831 0 0 1-48-26 1560 1560 0 0 1-37-17q-8.337-.06-7-7.5"/>
  <path style="opacity:.58" fill="#8c8d8d" d="M31.5 71.5q-.258 1.487 1 2a6.54 6.54 0 0 1-3 3q.098-.658-.5-1-1.062 1.32-2.5 2 1.38-3.885 5-6"/>
  <path style="opacity:1" fill="#1c476d" d="M470.5 69.5q10.578 6.645 20 14-2.673-1.83-6-2-6.754-6.377-16-8v-1a4.93 4.93 0 0 0 3-.5q-1.129-1.005-1-2.5"/>
  <path style="opacity:1" fill="#486582" d="M149.5 42.5a376 376 0 0 1-10.5 24q-.988 5.082.5 10-3.675-.561-3-4.5 1.555-14.164 8.5-26.5 1.362-2.909 4.5-3"/>
  <path style="opacity:1" fill="#c3cbd3" d="M190.5 73.5q1.356 1.064 1 3a977 977 0 0 1 72 2h-32a421 421 0 0 0-41-1z"/>
  <path style="opacity:1" fill="#8f9ead" d="M291.5 74.5q1.426 2.128 1 5-12.775.49-25-1h24z"/>
  <path style="opacity:1" fill="#3c6b9d" d="M63.5 75.5q.517 4.68-2 8.5 2.255 2.882 2 6.5l-4-3q-10.732-.877-22 0h-10a514 514 0 0 1 21-4l1-1q-5.645-.594-10-3 10.017.57 20 .5 1.242-2.988 4-4.5"/>
  <path style="opacity:.451" fill="#88929d" d="M554.5 83.5h-17q8.435-3.282 17 0"/>
  <path style="opacity:1" fill="#2977b9" d="M306.5 31.5h2a77 77 0 0 0 2.5 12q6.126 19.45 12.5 38.5a2262 2262 0 0 0 53 3.5 90 90 0 0 0 11 2.5l30 1q-2.41 1.574-2 4.5 5.009-.585 10-1.5l-2-1a227 227 0 0 1 39 2q3.087 4.8 3-1.5 4.712 5.355 12 6 8.641-1.306 16-5 6.402.555 12 3a378 378 0 0 1 2.5 25l2 4q1.415 8.268-1 16-1.902-.174-4-1l-171 2a245 245 0 0 0-8.5-2 186 186 0 0 1-3 2q-1.941-2.322-2-6a23.3 23.3 0 0 1 1-6.5 116 116 0 0 1-5-17.5 1478 1478 0 0 1-20-92q2.128-1.427 5-1a41 41 0 0 0 .5 9q3.029 1.285 4.5 4"/>
  <path style="opacity:1" fill="#3d607f" d="M308.5 31.5a6607 6607 0 0 0 17 49.5q39.513 2.136 79 4.5a285 285 0 0 0 24 2 487 487 0 0 0 36 1 85 85 0 0 1 .5-13q.633-2.889 3.5-3v1q-3.885 6.29-3 14v4a3247 3247 0 0 0-89-6 2262 2262 0 0 1-53-3.5A2279 2279 0 0 1 311 43.5a77 77 0 0 1-2.5-12"/>
  <path style="opacity:1" fill="#aebbca" d="M404.5 85.5q10.013-.25 20 .5 2.337.315 4 1.5a285 285 0 0 1-24-2"/>
  <path style="opacity:1" fill="#2b77b5" d="M468.5 73.5q9.246 1.623 16 8v2q4.7 6.748-2 11.5-11.963 3.51-17-7.5-.885-7.71 3-14"/>
  <path style="opacity:1" fill="#195053" d="M484.5 81.5q3.327.17 6 2v3q3.618-.384 5 3a13.1 13.1 0 0 1-7 1q.401-2.398-1-4a6.54 6.54 0 0 0-3-3z"/>
  <path style="opacity:1" fill="#6a2e46" d="M27.5 87.5h10q-4.712 1.231-10 1.5-2.946 2.176-4 5.5-2.736 5.02-2 11-1.46-3.672-1-8 1.045-6.57 7-10"/>
  <path style="opacity:1" fill="#2978b9" d="M504.5 77.5a115 115 0 0 1 12 7.5 49.8 49.8 0 0 1 12 3.5q1.462 2.54 4 4.5a135 135 0 0 0 33 10 1801 1801 0 0 0 42 4.5q-.129 1.494 1 2.5a189 189 0 0 1 21 2.5q-.21 2.435 2 3.5 3.32.939 6.5-.5 2.235 1.225 4.5 2.5a1109 1109 0 0 1-9.5 5.5q-1 2.5 0 5a12.4 12.4 0 0 1 2.5 4q-13.092 1.439-27 0 .622 3.672-3 4-8.722-4.875-19-5.5-12-1-24 0-2.428.354-3 2.5-3.014 2.347-7 3a32.5 32.5 0 0 0-8 .5l-2 3q-3.264.244-5.5 2.5a26.7 26.7 0 0 0-6.5-1.5q-1.892-4.528-4 .5-4.906-1.047-10 0 .269-12.264-2-24a47.7 47.7 0 0 1 1-9.5 9.5 9.5 0 0 1-2.5-1.5q1.902-12.56-7.5-20.5-1.283-2.175-.5-4.5a7.3 7.3 0 0 0-2 3q-2.034-1.32-4.5-1-1 0-1-1a19 19 0 0 1-2-8 27.7 27.7 0 0 1 9 3"/>
  <path style="opacity:1" fill="#3174a9" d="M376.5 85.5a3247 3247 0 0 1 89 6q.087 6.3-3 1.5a227 227 0 0 0-39-2l2 1q-4.991.915-10 1.5-.41-2.926 2-4.5l-30-1a90 90 0 0 1-11-2.5"/>
  <path style="opacity:1" fill="#ee0404" d="M59.5 88.5v1a71.3 71.3 0 0 0 7.5 13q1.139 2.345 3.5 3l2 2a5.73 5.73 0 0 0 1 3q-11.395 2.95-24 2a104.6 104.6 0 0 1-26-2 16.3 16.3 0 0 0-2-5q-.736-5.98 2-11a31.4 31.4 0 0 0 5-4.5 551 551 0 0 1 31-1.5"/>
  <path style="opacity:1" fill="#b5141c" d="M59.5 89.5a44.2 44.2 0 0 1 7 8q.5 1.5 2 2l2 6q-2.361-.655-3.5-3a71.3 71.3 0 0 1-7.5-13"/>
  <path style="opacity:1" fill="#6a2536" d="m59.5 87.5 4 3a45 45 0 0 0 3 7 44.2 44.2 0 0 0-7-8z"/>
  <path style="opacity:1" fill="#15455b" d="M490.5 83.5a34.3 34.3 0 0 1 11 8 16.9 16.9 0 0 1-8 1q-2.648-1.442-6-1v-5q1.401 1.602 1 4a13.1 13.1 0 0 0 7-1q-1.382-3.384-5-3z"/>
  <path style="opacity:.655" fill="#697b87" d="M596.5 89.5q6.396-.234 12 2a50.4 50.4 0 0 1-10-.5q-1.374-.417-2-1.5"/>
  <path style="opacity:1" fill="#2b77b5" d="M610.5 93.5a130 130 0 0 0 13 3q4.418 2.492 10 3.5 2.8 5.518 8.5 2.5 4.765.586 8.5 3.5l-4 .5q-11.778-3.547-3 4.5a8.4 8.4 0 0 1-4 .5 1097 1097 0 0 0-80-11.5q-16.539-2.09-30-11.5 8.28-3.327 17.5-4a1505 1505 0 0 1 63.5 9"/>
  <path style="opacity:1" fill="#961826" d="M59.5 87.5v1a551 551 0 0 0-31 1.5 31.4 31.4 0 0 1-5 4.5q1.054-3.324 4-5.5 5.288-.269 10-1.5 11.268-.877 22 0"/>
  <path style="opacity:1" fill="#3070a4" d="M180.5 78.5a571 571 0 0 1-34 1.5q-1.552 2.26.5 4.5 4.88 5.3 9 11 2.627 7.736 4-1a147 147 0 0 1 5-4q4.195 1.88 8.5 3.5 13.764.255 27 1.5h-39v8h40v-8q1.916 1.79 2 5a17.1 17.1 0 0 1-1 5.5 340 340 0 0 0-35 0q-1.549 2.44-4 3.5a277 277 0 0 1-22-28.5l2-2q18.493-.75 37-.5"/>
  <path style="opacity:1" fill="#175283" d="M484.5 83.5a6.54 6.54 0 0 1 3 3v5q3.352-.442 6 1-7.359 3.694-16 5-7.288-.645-12-6v-4q5.037 11.01 17 7.5 6.7-4.752 2-11.5"/>
  <path style="opacity:1" fill="#183651" d="M317.5 99.5h40q.416 4.422-1 8.5-19.494.75-39 .5z"/>
  <path style="opacity:1" fill="#554264" d="M68.5 99.5q4.834 3.138 6 9l-2-1-2-2z"/>
  <path style="opacity:1" fill="#1c1f26" d="M319.5 101.5a343 343 0 0 1 37-1q.359 2.951-1 5.5-17.761 1.239-35-.5 15.009.25 30-.5a10.3 10.3 0 0 0 4-1.5 671 671 0 0 0-35-2"/>
  <path style="opacity:1" fill="#182a3d" d="M200.5 95.5h1v8h-40v-8z"/>
  <path style="opacity:1" fill="#231e22" d="M163.5 96.5h36v5a428 428 0 0 1-36 1z"/>
  <path style="opacity:1" fill="#241e1d" d="M319.5 101.5a671 671 0 0 1 35 2 10.3 10.3 0 0 1-4 1.5q-14.991.75-30 .5-1.401-1.602-1-4"/>
  <path style="opacity:1" fill="#1a5383" d="M528.5 88.5h1q13.461 9.41 30 11.5a1097 1097 0 0 1 80 11.5 50.5 50.5 0 0 1 12 6h-4q-3.593-2.457-8-3.5a541 541 0 0 0-32-6.5 1801 1801 0 0 1-42-4.5 135 135 0 0 1-33-10q-2.538-1.96-4-4.5"/>
  <path style="opacity:1" fill="#3075ad" d="M623.5 96.5q6.993.695 14 1.5a69023 69023 0 0 0 46 15q10.986 5.473 19.5 14.5.724 1.422.5 3a50.5 50.5 0 0 1-10-.5q-3.613-2.56-8-2.5-1.487.257-2-1a9.8 9.8 0 0 0-4-3q4.562.077 8 3a21.3 21.3 0 0 1 7-1v3h4q-1.916-7.96-10-5a15.7 15.7 0 0 1-4-2.5q2.292-4.321-2-7-10.341-.458-19-6-3.94-1.492-8-1-1.5 3.5-5 5 3.734 3.948 9 5.5l6 1q3.696-.135 6.5-2a26.7 26.7 0 0 0 6.5 1.5q-3.4.414-7 2 .834.575 1 1.5-6.493-3.061-13-1-2.398.401-4-1a4.93 4.93 0 0 0 3-.5q-3.63-.435-7-1.5a50.5 50.5 0 0 0-12-6 8.4 8.4 0 0 0 4-.5q-8.778-8.047 3-4.5l4-.5q-3.735-2.914-8.5-3.5-5.7 3.018-8.5-2.5-5.582-1.008-10-3.5"/>
  <path style="opacity:.722" fill="#4b6279" d="M610.5 91.5a376 376 0 0 1 78 21.5 786 786 0 0 1 7 4.5q2.54 4.035 7 6a17.9 17.9 0 0 0 4 6q-1.258.513-1 2a39.7 39.7 0 0 0-11 1 59 59 0 0 1-9-5q4.387-.06 8 2.5 4.975.747 10 .5a4.93 4.93 0 0 0-.5-3q-8.514-9.027-19.5-14.5a69023 69023 0 0 1-46-15 898 898 0 0 0-14-1.5 130 130 0 0 1-13-3z"/>
  <path style="opacity:1" fill="#5d3a5b" d="M20.5 97.5q-.46 4.328 1 8a16.3 16.3 0 0 1 2 5l1 2h-2q-.35-2.343-2-4-1.822-5.701 0-11"/>
  <path style="opacity:1" fill="#731d2b" d="m72.5 107.5 2 1q.915 1.337 1 3 .257 1.487-1 2 .356-1.936-1-3a5.73 5.73 0 0 1-1-3"/>
  <path style="opacity:1" fill="#2a77ba" d="M679.5 123.5q-3.868.159-7-2-.166-.925-1-1.5 3.6-1.586 7-2a26.7 26.7 0 0 1-6.5-1.5q-2.804 1.865-6.5 2l-6-1q-5.266-1.552-9-5.5 3.5-1.5 5-5 4.06-.492 8 1 8.659 5.542 19 6 4.292 2.679 2 7a15.7 15.7 0 0 0 4 2.5q8.084-2.96 10 5h-4v-3a21.3 21.3 0 0 0-7 1q-3.438-2.923-8-3"/>
  <path style="opacity:1" fill="#871627" d="M23.5 110.5a104.6 104.6 0 0 0 26 2v1q-12.582.41-25-1z"/>
  <path style="opacity:1" fill="#a7131c" d="M73.5 110.5q1.356 1.064 1 3h-25v-1q12.604.95 24-2"/>
  <path style="opacity:1" fill="#583957" d="M24.5 112.5q12.418 1.41 25 1h25q-13.227 1.49-27 1-11.01.25-22-.5-.835-.575-1-1.5"/>
  <path style="opacity:1" fill="#424a6e" d="M75.5 111.5h2q.915 1.337 1 3 0 1-1 1-15.27.49-30-1 13.773.49 27-1 1.257-.513 1-2"/>
  <path style="opacity:1" fill="#2977b8" d="M20.5 108.5q1.65 1.657 2 4 .39 3.142 3.5 4a72.4 72.4 0 0 1 11-1 549 549 0 0 1 39.5 2.5q1.377 3.2.5 6.5 1.865-1.254 3.5 1 2.66 8.454 8 15-3.375-.478-6 1.5a2177 2177 0 0 1-66 .5 343 343 0 0 1 1-37q.961 2.24 3 3"/>
  <path style="opacity:.235" fill="#adb3bb" d="M695.5 117.5q4.421 1.922 7 6-4.46-1.965-7-6"/>
  <path style="opacity:1" fill="#1a548a" d="M78.5 114.5a537 537 0 0 0 17 25q1.238 1.329 3 1a22.8 22.8 0 0 0-4 3q-8.507-14.005-17-28 1 0 1-1"/>
  <path style="opacity:1" fill="#1e5686" d="M150.5 34.5a41.5 41.5 0 0 1-1 8q-3.138.091-4.5 3-6.945 12.336-8.5 26.5-.675 3.939 3 4.5h1a530 530 0 0 0 46 1q-2.647 1.442-6 1-18.507-.25-37 .5l-2 2a277 277 0 0 0 22 28.5 4655 4655 0 0 0 14 20 444 444 0 0 0 20 30h-2a136 136 0 0 1-13-18 461 461 0 0 0-15.5-24 482 482 0 0 1-32-42 25.2 25.2 0 0 1 0-10 613 613 0 0 1 11-26q1.6-3.287 4.5-5"/>
  <path style="opacity:1" fill="#365a77" d="M647.5 117.5h4q3.37 1.065 7 1.5a4.93 4.93 0 0 1-3 .5q-11.334-1.82-19 6.5 9.354 12.106 22 20.5a361 361 0 0 0 27 2q9.74 1.575 19 0 1 0 1-1h2q2.324 1.83 5 0 1.5.5 2 2v1a1170 1170 0 0 1-55-1.5 119 119 0 0 1-17-12.5q-1.185-1.352-3-2-.627-4.408-4.5-7-1-1.5 0-3a78 78 0 0 1 12.5-7"/>
  <path style="opacity:.4" fill="#b8bec4" d="M702.5 123.5q3.537 3.043 7 6h-3a17.9 17.9 0 0 1-4-6"/>
  <path style="opacity:1" fill="#eff4f4" d="M655.5 119.5q1.602 1.401 4 1l24 6q.513 1.257 2 1a59 59 0 0 0 9 5q4.461 3.957 9 8a5.73 5.73 0 0 0 1 3v5q-9.26 1.575-19 0-13.16-2.566-27-2-12.646-8.394-22-20.5 7.666-8.32 19-6.5"/>
  <path style="opacity:1" fill="#4b6d86" d="M659.5 120.5q6.507-2.061 13 1 3.132 2.159 7 2a9.8 9.8 0 0 1 4 3z"/>
  <path style="opacity:1" fill="#3174ac" d="M77.5 111.5q4.018.037 4 4 1.762-.329 3 1 .955 2.704 3.5 4a10.1 10.1 0 0 1 1.5 6q1.762-.329 3 1a51.8 51.8 0 0 0 8 9 49 49 0 0 1 15-4.5q-1.684-1.566-4-2 6.706-.067 13-.5 11.032 1.909 22 1-.255 1.983 1 3.5 3.335.85 6 2.5-28.39-9.342-55 4-1.762.329-3-1a537 537 0 0 1-17-25 5.73 5.73 0 0 0-1-3"/>
  <path style="opacity:.976" fill="#3e5a73" d="M15.5 93.5q.25 25.005-.5 50-2.8 4.4-8 5-.75 8.486-.5 17h-2q-1.73-8.728-.5-18a16.44 16.44 0 0 1 7.5-4q2.975-21.443 2-44 .143-3.429 2-6"/>
  <path style="opacity:1" fill="#3273a9" d="M607.5 107.5a541 541 0 0 1 32 6.5q4.407 1.043 8 3.5a78 78 0 0 0-12.5 7q-1 1.5 0 3 3.873 2.592 4.5 7a163.6 163.6 0 0 0-29 1.5 81 81 0 0 0-3 2.5q-23.301-8.41-48-5 .572-2.146 3-2.5 12-1 24 0 10.278.625 19 5.5 3.622-.328 3-4 13.908 1.439 27 0a12.4 12.4 0 0 0-2.5-4q-1-2.5 0-5 4.72-2.701 9.5-5.5-2.265-1.275-4.5-2.5-3.18 1.439-6.5.5-2.21-1.065-2-3.5a189 189 0 0 0-21-2.5q-1.129-1.006-1-2.5"/>
  <path style="opacity:.09" fill="#c9d3d7" d="M13.5 99.5q.975 22.557-2 44a8679 8679 0 0 1 2-44"/>
  <path style="opacity:1" fill="#124f83" d="M639.5 134.5q1.815.648 3 2-14.508-.25-29 .5-3.067.747-4 3.5l-2-2a81 81 0 0 1 3-2.5 163.6 163.6 0 0 1 29-1.5"/>
  <path style="opacity:.392" fill="#a5a5a5" d="M710.5 129.5q8.52 7.536 10 19v4l-2-4q-1.724-8.947-7.5-16-.598.343-.5 1-1.281-1.698 0-4"/>
  <path style="opacity:1" fill="#8f9090" d="M705.5 131.5v1q2.29-.11 3 2-1.263 3.397 1 7a31.3 31.3 0 0 1-5 2 5.73 5.73 0 0 1-1-3 6000 6000 0 0 0-9-8 39.7 39.7 0 0 1 11-1"/>
  <path style="opacity:1" fill="#f4f6f7" d="M705.5 132.5v4q-5.192.916-8-3.5a32.5 32.5 0 0 1 8-.5"/>
  <path style="opacity:1" fill="#e7e6e4" d="M703.5 140.5q.18-1.63 2-2l2 1q-1.783 1.393-4 1"/>
  <path style="opacity:.898" fill="#5b5b5c" d="M706.5 129.5h4q-1.281 2.302 0 4a154 154 0 0 0 7 15q-1.258.513-1 2h-2v-1q.814-.09 1-1l-7-14q-.71-2.11-3-2v-1q-.258-1.487 1-2"/>
  <path style="opacity:1" fill="#616464" d="M193.5 198.5h-5a152 152 0 0 0-1.5-15q-1.106-4.502-3.5-8-8.251-18.422-26-28.5a57.2 57.2 0 0 0-13-3.5q-.166-.925-1-1.5-18.21-2.634-35 4.5a50.8 50.8 0 0 1-11 6.5q-1.985 1.224-2 3.5-6.069 2.574-8 9-7.466 7.426-9.5 18-3.352 16.324 1.5 32a123.3 123.3 0 0 1-31-4q-5.477-1.739-10-5a151 151 0 0 0 30 2q-.547-16.71 3-33a1013 1013 0 0 0 11.5-20q24.746-26.751 60.5-19.5 49.047 11.776 50 62.5"/>
  <path style="opacity:1" fill="#2775b1" d="M505.5 95.5h2q5.184 23.003 4 47a8935 8935 0 0 1-189-1q1.473-.961 3-2a245 245 0 0 1 8.5 2l171-2q2.098.826 4 1 2.415-7.732 1-16l-2-4a378 378 0 0 0-2.5-25"/>
  <path style="opacity:1" fill="#1f6ca6" d="M39.5 79.5q4.355 2.406 10 3l-1 1a514 514 0 0 0-21 4q-5.956 3.43-7 10-1.822 5.299 0 11-2.039-.76-3-3a343 343 0 0 0-1 37q33.004.25 66-.5 2.625-1.978 6-1.5-5.34-6.546-8-15-1.635-2.254-3.5-1 .877-3.3-.5-6.5a549 549 0 0 0-39.5-2.5 72.4 72.4 0 0 0-11 1q-3.11-.858-3.5-4h2q.165.925 1 1.5 10.99.75 22 .5 14.73 1.49 30 1 8.493 13.995 17 28-18.123 11.248-23 32-5.35 12.76-5 27-1.466.467-2 2a48.7 48.7 0 0 1-17 .5 421 421 0 0 1-26-10.5 10.1 10.1 0 0 1-4-1.5l-11-9.5a59.5 59.5 0 0 0 0-18q-.25-8.514.5-17 5.2-.6 8-5 .75-24.995.5-50 6.513-5.45 11-13a43.1 43.1 0 0 1 13-1"/>
  <path style="opacity:1" fill="#1d6ca7" d="M303.5 67.5q12.169 35.854 14 74a499 499 0 0 1-4 58.5q-42.562.53-85-2-5.612-2.607-9.5-7.5a406 406 0 0 1-21.5-31 444 444 0 0 1-20-30h3q1.66 5.322 5 10 2.453 1.772 5 0a18 18 0 0 1 3.5 2q52.515-1.826 110 0 1.993-1.491 4-3 2.612 2.931 6.5 3a85 85 0 0 0-.5-13q-2.037-5.971-2.5-12.5-.156-3.218 2-5.5a28 28 0 0 1-1.5-5 9.5 9.5 0 0 1-1.5 2.5q1.98 3.322-2 4.5-1.96-2.118-2.5-5a54.5 54.5 0 0 1 1.5-13q-3.962-13.136-4-27"/>
  <path style="opacity:1" fill="#1c6ca6" d="M316.5 111.5a116 116 0 0 0 5 17.5 23.3 23.3 0 0 0-1 6.5q.059 3.678 2 6a8935 8935 0 0 0 189 1 284.7 284.7 0 0 1-4 60h-28a2290 2290 0 0 0-96-3l-32 1h-35a689 689 0 0 0 2-59 284 284 0 0 0-2-30"/>
  <path style="opacity:1" fill="#236da6" d="M552.5 136.5q-19.227 8.724-30 27-2.385.192-4 2-3.472 17.966-5 0a364 364 0 0 0-4.5-74q-5.1-4.37-10.5-8 2.466-.32 4.5 1a7.3 7.3 0 0 1 2-3q-.783 2.325.5 4.5 9.402 7.94 7.5 20.5a9.5 9.5 0 0 0 2.5 1.5 47.7 47.7 0 0 0-1 9.5q2.269 11.736 2 24 5.094-1.047 10 0 2.108-5.028 4-.5a26.7 26.7 0 0 1 6.5 1.5q2.236-2.256 5.5-2.5l2-3a32.5 32.5 0 0 1 8-.5"/>
  <path style="opacity:1" fill="#1e6ca6" d="M642.5 136.5a119 119 0 0 0 17 12.5q27.592 1.4 55 1.5h2a32 32 0 0 0 3.5 6q.75 10.989.5 22-5.807-.473-11 1a813 813 0 0 0-2 11 31.2 31.2 0 0 0-4.5-6q-3.133 4.448.5 8.5-2.244.76-3.5-1.5-.374-4.015-3-7a50.5 50.5 0 0 1-.5-10h-35q-1.966 13.878 5 25.5a26 26 0 0 0 9 2.5q14.143 4.154 29 4a50 50 0 0 0 7 2.5q-6.095 2.568-12.5.5a263 263 0 0 1-56.5 6 129 129 0 0 0-.5-16q-.04-5.518-2.5-10-3.95-31.423-30-49 .933-2.753 4-3.5 14.492-.75 29-.5"/>
  <path style="opacity:.957" fill="#e3e3e2" d="M718.5 148.5h-1a154 154 0 0 1-7-15q-.098-.657.5-1 5.776 7.053 7.5 16"/>
  <path style="opacity:1" fill="#070707" d="M144.5 143.5a57.2 57.2 0 0 1 13 3.5q17.749 10.078 26 28.5 4.403 15.753 2.5 32 .575-.834 1.5-1-12.955 47.237-62 45.5-26.386-3.922-40-26.5-9.315-19.36-6.5-41a47.4 47.4 0 0 1 5-12 265 265 0 0 0 11.5-16 87.7 87.7 0 0 0 14-8 26.8 26.8 0 0 1 10-2v-3a86.5 86.5 0 0 1 25 0"/>
  <path style="opacity:1" fill="#080808" d="M597.5 145.5a36.4 36.4 0 0 1 8 2.5q12.514 9.017 22 21a73 73 0 0 1 2 6.5 27.6 27.6 0 0 0 2.5 10q.75 9.987.5 20 .384 3.438-1 6.5 3.97.746 8 .5v2q-3.357-1.555-7-.5-21.04 45.021-70 36-28.077-10.077-38-38a32.5 32.5 0 0 0-8-.5q3.672-1.46 8-1a125 125 0 0 1-.5-23q4.353-13.507 12-25a248 248 0 0 1 13.5-13q4.567-1.169 8-4 19.97-5.827 40 0"/>
  <path style="opacity:1" fill="#cbcbcb" d="m708.5 134.5 7 14q-.186.91-1 1-.5-1.5-2-2a12.6 12.6 0 0 0-2.5-4q-2.034 1.32-4.5 1v3q0 1-1 1v-5a31.3 31.3 0 0 0 5-2q-2.263-3.603-1-7"/>
  <path style="opacity:1" fill="#cad6de" d="M658.5 146.5q13.84-.566 27 2a361 361 0 0 1-27-2"/>
  <path style="opacity:1" fill="#798488" d="M712.5 147.5q-2.676 1.83-5 0 1.762.329 3-1l-2-1q-1.82.37-2 2h-1v-3q2.466.32 4.5-1a12.6 12.6 0 0 1 2.5 4"/>
  <path style="opacity:1" fill="#c0ccca" d="M707.5 147.5h-1q.18-1.63 2-2l2 1q-1.238 1.329-3 1"/>
  <path style="opacity:.026" fill="#ebedef" d="M720.5 148.5q1.36 3.235 2 7-2.11-.71-2-3z"/>
  <path style="opacity:1" fill="#233d52" d="m607.5 138.5 2 2q26.05 17.577 30 49a171 171 0 0 1 2 26l-2-1v-2q1.851-32.067-16.5-58-7.438-8.947-17.5-14.5-44.31-18.142-76.5 16.5-17.96 23.631-13.5 53v2q-.513 1.257-2 1v-18q.098-16.91 9-31 10.773-18.276 30-27 3.986-.653 7-3 24.699-3.41 48 5"/>
  <path style="opacity:1" fill="#1e6ba5" d="M153.5 136.5q5.961 1.469 12 3a22.3 22.3 0 0 0 7.5 4 7.3 7.3 0 0 0 3.5-2q3.06 5.96 6 0a136 136 0 0 0 13 18 128 128 0 0 1 10 16q-.183 4.135 3.5 6a12.9 12.9 0 0 1 .5 5 4.93 4.93 0 0 1 3 .5l-1 1q3.466 1.578 4 5.5a75 75 0 0 1 8 6.5q6.927.105 12.5 3.5 57.732-.805 115.5 0 48.526-.434 97 1a993 993 0 0 0 63 1 6.85 6.85 0 0 1-1 4q-155.997 1.5-312 1-.526-9.848-3-19-3.305-21.608-16.5-39-11.515-10.324-25.5-16"/>
  <path style="opacity:1" fill="#323232" d="M549.5 149.5a248 248 0 0 0-13.5 13q-7.647 11.493-12 25a125 125 0 0 0 .5 23q-4.328-.46-8 1h-1v-2h8q-5.626-33.877 20-56.5a30 30 0 0 1 6-3.5"/>
  <path style="opacity:1" fill="#dbdcdc" d="M126.5 187.5q-10.886-6.357-19.5-16 .006-4.79 4.5-7 1.782-1.776 3.5 0a185 185 0 0 1 11.5 23"/>
  <path style="opacity:1" fill="#dcdddd" d="m150.5 163.5 6 3q2.42 2.007 1.5 5a420 420 0 0 1-18.5 16q-1.671-1.834-.5-4a351 351 0 0 0 11.5-20"/>
  <path style="opacity:1" fill="#4e4e4e" d="M110.5 162.5q-.257 1.487 1 2-4.494 2.21-4.5 7 8.614 9.643 19.5 16l-3 2a86 86 0 0 0-8.5-7 3.94 3.94 0 0 0-2 1q-1.347 3.853-3.5 7 .257-1.487-1-2a156 156 0 0 1 3.5-10q-4.13-4.65-9.5-6.5-10.367 12.353-9 28.5h4q-2.648 1.442-6 1a84 84 0 0 1 1-16q2.353-3.467 2.5-8a67.4 67.4 0 0 0 8.5-10.5 51 51 0 0 0 7-4.5"/>
  <path style="opacity:.243" fill="#7f91a2" d="M4.5 165.5h2q.46 4.328-1 8a25 25 0 0 0-1-8"/>
  <path style="opacity:1" fill="#dcdcdc" d="M108.5 188.5q-1.083.626-1.5 2a41 41 0 0 0-.5 9 41.7 41.7 0 0 0-9 1h-4q-1.367-16.147 9-28.5 5.37 1.85 9.5 6.5a156 156 0 0 0-3.5 10"/>
  <path style="opacity:1" fill="#dadada" d="M168.5 181.5q3.435 9.68 3 20a41.5 41.5 0 0 1-8-1q-2.466.32-4.5-1-.443-10.763-6.5-19.5 3.25-5.25 8.5-8.5 5.113 3.878 7.5 10"/>
  <path style="opacity:1" fill="#606464" d="M639.5 212.5a32.5 32.5 0 0 1-8-.5q1.384-3.062 1-6.5 1.733-10.732.5-22-1.057-4.463-3.5-8a73 73 0 0 0-2-6.5q-9.486-11.983-22-21a36.4 36.4 0 0 0-8-2.5q-2.013-1.94-5-2.5-13.347-4.131-27-1-4.464 1.057-8 3.5-3.433 2.831-8 4a30 30 0 0 0-6 3.5q-25.626 22.623-20 56.5h-8q-4.46-29.369 13.5-53 32.19-34.642 76.5-16.5 10.062 5.553 17.5 14.5 18.351 25.933 16.5 58"/>
  <path style="opacity:1" fill="#dcdcdc" d="M550.5 171.5q4.727 3.479 8 8.5-6.684 8.618-6 19.5-6.535.13-13 1-1.842-15.204 7.5-27 1.224-1.984 3.5-2m48-8a580 580 0 0 0 6 5 39.3 39.3 0 0 1-10 11q-4.47 3.966-9 8-1.671-1.834-.5-4a28.5 28.5 0 0 0 4.5-9q3.716-4.407 6-10 1.238-1.329 3-1"/>
  <path style="opacity:1" fill="#dbdbdb" d="M617.5 201.5a110 110 0 0 1-13-2q.906-10.918-6-19 2.51-4.834 7-8.5 3.9.699 6.5 4.5 6.283 11.686 5.5 25"/>
  <path style="opacity:1" fill="#2e2e2e" d="M595.5 159.5q9.618 2.112 14 11-3.081.202-5-2a580 580 0 0 1-6-5q-1.063-1.356-3-1z"/>
  <path style="opacity:1" fill="#dcdbdb" d="M587.5 172.5q-9.471-1.996-19 0l-2-1q-1.23-4.458-4-8 .463-4.269 5-4.5a79 79 0 0 1 25.5 1.5l1.5 1q-2.432 6.407-7 11"/>
  <path style="opacity:1" fill="#636162" d="M595.5 159.5v3q1.937-.356 3 1-1.762-.329-3 1-2.284 5.593-6 10l-2-2q4.568-4.593 7-11l-1.5-1a79 79 0 0 0-25.5-1.5q-4.537.231-5 4.5-2.259-3.939 2-6a152 152 0 0 0 14-2 97 97 0 0 1 17 4"/>
  <path style="opacity:1" fill="#313433" d="M597.5 145.5q-20.03-5.827-40 0 3.536-2.443 8-3.5 13.653-3.131 27 1 2.987.56 5 2.5"/>
  <path style="opacity:1" fill="#5f5f5f" d="M546.5 170.5q2.398-.401 4 1-2.276.016-3.5 2-9.342 11.796-7.5 27l-2 1q-1.716-17.487 9-31"/>
  <path style="opacity:1" fill="#28292a" d="M629.5 175.5q2.443 3.537 3.5 8 1.233 11.268-.5 22 .25-10.013-.5-20a27.6 27.6 0 0 1-2.5-10"/>
  <path style="opacity:.118" fill="#7c899c" d="M5.5 173.5a77 77 0 0 0-1 10q-2.047-5.188 1-10"/>
  <path style="opacity:1" fill="#0d4d72" d="M716.5 200.5q.814.09 1 1-4.218 2.634-1 5h-12q-14.857.154-29-4-14.848-9.202-13-27h33q-1.998 21.492 19 26 1.374-.064 2-1"/>
  <path style="opacity:.026" fill="#ebefee" d="M722.5 180.5q-2.21 4.365-6.5 2l-1.5 1.5q2.822.297 5 1.5h-8v-5z"/>
  <path style="opacity:1" fill="#213c51" d="M153.5 136.5q13.985 5.676 25.5 16 13.195 17.392 16.5 39v21q-1.475-5.697-1-12 .257-1.487-1-2-.953-50.724-50-62.5-35.754-7.251-60.5 19.5a1013 1013 0 0 1-11.5 20q4.877-20.752 23-32a22.8 22.8 0 0 1 4-3q26.61-13.342 55-4"/>
  <path style="opacity:1" fill="#242122" d="M159.5 165.5a5.73 5.73 0 0 1-3 1l-6-3q-1.043-6.423-8-6a71.2 71.2 0 0 0-23 0q5.715-2.843 12.5-3 7.28.79 14.5 2a180 180 0 0 0 13 9"/>
  <path style="opacity:1" fill="#727171" d="m142.5 157.5 1 2q-13.215-2.56-26 1.5-1.128 1.006-1 2.5-1.83-2.325 0-5 1.936.356 3-1a71.2 71.2 0 0 1 23 0"/>
  <path style="opacity:1" fill="#202020" d="M144.5 143.5a86.5 86.5 0 0 0-25 0v3a26.8 26.8 0 0 0-10 2 87.7 87.7 0 0 1-14 8q.015-2.276 2-3.5a50.8 50.8 0 0 0 11-6.5q16.79-7.134 35-4.5.834.575 1 1.5"/>
  <path style="opacity:.533" fill="#3e576f" d="M6.5 165.5a59.5 59.5 0 0 1 0 18l11 9.5a10.1 10.1 0 0 0 4 1.5 51 51 0 0 1 7 7q-14.13-6.125-24-18 .175-5.04 1-10 1.46-3.672 1-8"/>
  <path style="opacity:1" fill="#777" d="M123.5 189.5q-2.326 3.619-2 8-6.465.87-13 1-.332-4.169 1-8 2.153-3.147 3.5-7a3.94 3.94 0 0 1 2-1 86 86 0 0 1 8.5 7"/>
  <path style="opacity:.345" fill="#c2c6cd" d="M719.5 185.5q1.83 2.325 0 5-14-1 0-2z"/>
  <path style="opacity:.18" fill="#c0c4c8" d="M719.5 190.5q3.148 1.305 1 4a29 29 0 0 0-5 2.5q2.73.3 4 2.5-5.457.08-6-5h6z"/>
  <path style="opacity:1" fill="#226799" d="M709.5 179.5a90 90 0 0 0 2.5 18 11.1 11.1 0 0 0 4.5 3q-.626.936-2 1-20.998-4.508-19-26h-33q-1.848 17.798 13 27a26 26 0 0 1-9-2.5q-6.966-11.622-5-25.5h35q-.247 5.025.5 10 2.626 2.985 3 7 1.256 2.26 3.5 1.5-3.633-4.052-.5-8.5a31.2 31.2 0 0 1 4.5 6 813 813 0 0 1 2-11"/>
  <path style="opacity:.718" fill="#405364" d="M717.5 148.5h1l2 4q-.11 2.29 2 3 1.971 12.352 0 25h-11v5h8v3q-14 1 0 2v4h-6q.543 5.08 6 5a9.1 9.1 0 0 1-1 5q.757 2.128 3 2 2.414 1.748 1 4-3.467 2.352-8 2.5a61 61 0 0 1-11 .5v-1q7.71-1.482 16-1 .389-3.734-3-5-3.218-2.366 1-5-.186-.91-1-1a11.1 11.1 0 0 1-4.5-3 90 90 0 0 1-2.5-18q5.193-1.473 11-1 .25-11.011-.5-22a32 32 0 0 1-3.5-6q-.258-1.487 1-2"/>
  <path style="opacity:.586" d="M194.5 200.5q-.475 6.303 1 12 .166.925 1 1.5 157 1 314 0 1.855-.348 3-1.5 1.487.257 2-1h1a32.5 32.5 0 0 1 8 .5q9.923 27.923 38 38 48.96 9.021 70-36 3.643-1.055 7 .5l2 1v1q5.41 1.986 12 2l12-.5q1.374-.417 2-1.5a155.3 155.3 0 0 0 36-3 61 61 0 0 0 11-.5q4.533-.148 8-2.5a19 19 0 0 1 5 3v26q-3.901 4.566-10 5.5a1334 1334 0 0 0-29 6 5092 5092 0 0 0-43 3.5h-575a572 572 0 0 1-32-9.5q-19.137-6.05-15.5-25.5 4.605-8.857 13.5-13h2q4.523 3.261 10 5 6.537 3.146 14 4.5 9.042.255 18 1.5 1.787 4.602 5 8 13.614 22.578 40 26.5 49.045 1.737 62-45.5a52 52 0 0 1 1-7q3.182-.262 6 1"/>
  <path style="opacity:1" fill="#ddd" d="M115.5 204.5q-2.48.24-4 2-2.29-.11-3 2a1429 1429 0 0 1-12 4q.401-2.398-1-4a19.2 19.2 0 0 1-1-6q13.513-1.39 27-3v3q-3.537-.371-6 2"/>
  <path style="opacity:1" fill="#dfe0df" d="M157.5 201.5q4.475 1.332 9.5 2 2.064.276 2.5 2a19 19 0 0 0-2 8 169 169 0 0 1-22-11q-1.329-1.237-1-3 6.62.28 13 2"/>
  <path style="opacity:1" fill="#616061" d="M168.5 181.5q2.1.9 3 3 3.126 10.385 1 21-1.152-1.144-1.5-3-.348 1.856-1.5 3-.436-1.724-2.5-2-5.025-.668-9.5-2 3.353.442 6-1 3.94.888 8 1 .435-10.32-3-20"/>
  <path style="opacity:1" fill="#144e7b" d="M476.5 69.5a208 208 0 0 1 21 13q0 1 1 1 5.4 3.63 10.5 8a364 364 0 0 1 4.5 74 389 389 0 0 1-5 39h-60a2519 2519 0 0 0-97-1q-59.255-1.896-119-3.5-6.084-.527-11-4a442 442 0 0 1-16-20.5 128 128 0 0 0-10-16h2a406 406 0 0 0 21.5 31q3.888 4.893 9.5 7.5a1181 1181 0 0 0 85 2 499 499 0 0 0 4-58.5h1a689 689 0 0 1-2 59h35a2773 2773 0 0 0 128 2h28a284.7 284.7 0 0 0 4-60q1.184-23.997-4-47-.366-4.145-4-6.5a296 296 0 0 1-27-19.5"/>
  <path style="opacity:1" fill="#2b6087" d="M21.5 194.5a421 421 0 0 0 26 10.5 48.7 48.7 0 0 0 17-.5q.534-1.533 2-2v5q-16.042 1.67-30.5-5-1.148.105-1.5 1h-2q-2.48-.24-4-2a51 51 0 0 0-7-7"/>
  <path style="opacity:.959" fill="#232524" d="M183.5 175.5q2.394 3.498 3.5 8a152 152 0 0 1 1.5 15h5q1.257.513 1 2-2.818-1.262-6-1a52 52 0 0 0-1 7q-.925.166-1.5 1 1.903-16.247-2.5-32"/>
  <path style="opacity:1" fill="#216597" d="M205.5 175.5a442 442 0 0 0 16 20.5q4.916 3.473 11 4 59.745 1.604 119 3.5a4141 4141 0 0 0-115.5 0q-5.573-3.395-12.5-3.5a75 75 0 0 0-8-6.5q-.534-3.922-4-5.5l1-1a4.93 4.93 0 0 0-3-.5 12.9 12.9 0 0 0-.5-5q-3.683-1.865-3.5-6"/>
  <path style="opacity:1" fill="#dedede" d="M590.5 199.5h5a109 109 0 0 0 20 4q.067 5.9-4 10a59.6 59.6 0 0 0-9-5 72 72 0 0 0-10-5.5q-1.984-1.224-2-3.5"/>
  <path style="opacity:.059" fill="#dbe4e6" d="M719.5 199.5a68 68 0 0 1 2 7q-2.243.128-3-2a9.1 9.1 0 0 0 1-5"/>
  <path style="opacity:.337" fill="#7c868e" d="M32.5 203.5h2q2.856.357 4 3h-2a9.8 9.8 0 0 0-4-3"/>
  <path style="opacity:1" fill="#555454" d="M604.5 168.5q1.919 2.202 5 2 17.048 21.758 4.5 47-9.3 15.055-26.5 19-2 0-2-2 16.248-2.495 25.5-16 1.026-1.926-.5-3.5a66 66 0 0 0-10-4.5l2-2a59.6 59.6 0 0 1 9 5q4.067-4.1 4-10 1.083.626 1.5 2a8.4 8.4 0 0 0 .5-4q.783-13.314-5.5-25-2.6-3.801-6.5-4.5-4.49 3.666-7 8.5-1.083-.626-1.5-2-1.006 1.129-2.5 1a39.3 39.3 0 0 0 10-11"/>
  <path style="opacity:1" fill="#21384b" d="M71.5 175.5a134 134 0 0 0-3 33 151 151 0 0 1-30-2q-1.144-2.643-4-3 .352-.895 1.5-1 14.458 6.67 30.5 5v-5q-.35-14.24 5-27"/>
  <path style="opacity:1" fill="#3e3e3e" d="M564.5 157.5q-4.259 2.061-2 6 2.77 3.542 4 8l2 1q9.529-1.996 19 0l2 2a28.5 28.5 0 0 1-4.5 9q-1.171 2.166.5 4 4.53-4.034 9-8 1.494.129 2.5-1 .417 1.374 1.5 2 6.906 8.082 6 19 6.436 1.387 13 2a8.4 8.4 0 0 1-.5 4q-.417-1.374-1.5-2a109 109 0 0 1-20-4q3.161-1.452 7-1-.03-8.577-4.5-16a3.94 3.94 0 0 0-2-1 84 84 0 0 0-8.5 7q3.561 3.792 3 9a8.4 8.4 0 0 1 4 .5q-2.337.315-4 1.5.016 2.276 2 3.5a72 72 0 0 1 10 5.5l-2 2q-5.872 8.877-16 12l-2 7a206 206 0 0 0-3-20q-1.063-1.356-3-1-.817 5.507-1-1-4.719-.234-7.5-4a85 85 0 0 0-9.5 5.5q2.396 5.897 8 9 3.266 1.803 7 1.5a10.1 10.1 0 0 1 1.5-6q.696.891.5 2a255 255 0 0 0-2 14q-1.426 2.128-1 5h-2a95 95 0 0 1 2-13q-5.746.376-10-3.5a160 160 0 0 1-7.5-8.5 157 157 0 0 0-10.5 6q-1.257.513-1 2-5.588-6.729-6-16l2-1q6.465-.87 13-1-.684-10.882 6-19.5-3.273-5.021-8-8.5-1.602-1.401-4-1a11.1 11.1 0 0 1 3-4.5 84 84 0 0 1 15-8.5"/>
  <path style="opacity:1" fill="#757575" d="M579.5 209.5q-2.81 2.373-4 6a2.43 2.43 0 0 0-.5-2 10.1 10.1 0 0 0-1.5 6q-3.734.303-7-1.5-5.604-3.103-8-9a85 85 0 0 1 9.5-5.5q2.781 3.766 7.5 4 .183 6.507 1 1 1.937-.356 3 1"/>
  <path style="opacity:1" fill="#767676" d="M587.5 203.5a35 35 0 0 1 11 5.5q-1.313 4.319-5 7a674 674 0 0 1-10 4 44.6 44.6 0 0 1-2-12.5q4.662.188 6-4"/>
  <path style="opacity:1" fill="#e1e2e1" d="M559.5 199.5q4.12-.47 8 1a374 374 0 0 1-23 12q-3.44-4.297-4-10 9.804-.827 19-3"/>
  <path style="opacity:1" fill="#9f9f9f" d="M574.5 187.5q17.16-1.115 12.5 15-9.812 8.835-17-2-2.431-8.366 4.5-13"/>
  <path style="opacity:1" fill="#767676" d="M595.5 199.5h-5q1.663-1.185 4-1.5a8.4 8.4 0 0 0-4-.5q.561-5.208-3-9a84 84 0 0 1 8.5-7 3.94 3.94 0 0 1 2 1q4.47 7.423 4.5 16-3.839-.452-7 1m-36-18a90 90 0 0 1 9.5 7q-1.683 4.095-1.5 9a77 77 0 0 0-13 1q-.054-9.287 5-17"/>
  <path style="opacity:1" fill="#777" d="M573.5 173.5q6.899-.45 13.5 1-1.64 5.01-4.5 10-3.91 1.727-8 .5-3.922-4.593-5-10.5 2.398.401 4-1"/>
  <path style="opacity:1" fill="#dfdfdf" d="M558.5 163.5q1.494-.129 2.5 1a257 257 0 0 0 10 19q1.171 2.166-.5 4a395 395 0 0 0-17.5-16q-1-1.5 0-3a38 38 0 0 1 5.5-5"/>
  <path style="opacity:1" fill="#23689c" d="M522.5 163.5q-8.902 14.09-9 31-1.483 8.213-1 17-157.252.499-314-1 156.003.5 312-1a6.85 6.85 0 0 0 1-4 993 993 0 0 1-63-1h60a389 389 0 0 0 5-39q1.528 17.966 5 0 1.615-1.808 4-2"/>
  <path style="opacity:1" fill="#26628d" d="M639.5 189.5q2.46 4.482 2.5 10 .749 7.984.5 16a263 263 0 0 0 56.5-6q6.405 2.068 12.5-.5a50 50 0 0 1-7-2.5h12q3.389 1.266 3 5-8.29-.482-16 1a798 798 0 0 0-36 4h-26v-1a171 171 0 0 0-2-26"/>
  <path style="opacity:1" fill="#dcdcdc" d="M110.5 210.5q4.683 8.682 14 12 1.56 6.477 0 13-16.467-3.62-25.5-18-.76-2.244 1.5-3.5a21.1 21.1 0 0 1 10-3.5"/>
  <path style="opacity:1" fill="#2a628b" d="M195.5 191.5q2.474 9.152 3 19 156.748 1.499 314 1-.483-8.787 1-17v18h-318z"/>
  <path style="opacity:1" fill="#226597" d="M479.5 202.5q-64.267.474-128-2l32-1q48.278.501 96 3"/>
  <path style="opacity:1" fill="#dcdcdc" d="M165.5 215.5q-2.33 7.614-9 12.5a60.6 60.6 0 0 1-17 7.5 541 541 0 0 1-2-11.5 86 86 0 0 1 11-6l7.5-7.5a130 130 0 0 0 9.5 5"/>
  <path style="opacity:.921" fill="#151f28" d="M195.5 212.5h318q-1.145 1.152-3 1.5-157 1-314 0-.834-.575-1-1.5"/>
  <path style="opacity:1" fill="#dbdbdb" d="M570.5 234.5q-18.002-2.483-26-19a157 157 0 0 1 10.5-6 160 160 0 0 0 7.5 8.5q4.254 3.876 10 3.5a95 95 0 0 0-2 13"/>
  <path style="opacity:1" fill="#e0e0e0" d="M579.5 209.5a206 206 0 0 1 3 20v5h-9v-5a255 255 0 0 1 2-14q1.19-3.627 4-6"/>
  <path style="opacity:1" fill="#dcdbdc" d="M600.5 210.5a66 66 0 0 1 10 4.5q1.526 1.574.5 3.5-9.252 13.505-25.5 16-1.401-1.602-1-4v-8q10.128-3.123 16-12"/>
  <path style="opacity:.655" fill="#1f2d37" d="M703.5 212.5v1a155.3 155.3 0 0 1-36 3 798 798 0 0 1 36-4"/>
  <path style="opacity:.83" fill="#282828" d="M95.5 156.5a265 265 0 0 1-11.5 16 47.4 47.4 0 0 0-5 12q-2.815 21.64 6.5 41-3.213-3.398-5-8a164 164 0 0 0-18-1.5q-7.463-1.354-14-4.5a123.3 123.3 0 0 0 31 4q-4.852-15.676-1.5-32 2.034-10.574 9.5-18 1.931-6.426 8-9"/>
  <path style="opacity:.907" fill="#1b242b" d="M641.5 216.5h26q-.626 1.083-2 1.5l-12 .5q-6.59-.014-12-2"/>
  <path style="opacity:1" fill="#3d3d3d" d="M142.5 157.5q6.957-.423 8 6a351 351 0 0 1-11.5 20q-1.171 2.166.5 4a420 420 0 0 0 18.5-16q.92-2.993-1.5-5a5.73 5.73 0 0 0 3-1 169 169 0 0 0 8.5 10q2.93 4.132 3.5 9-.9-2.1-3-3-2.387-6.122-7.5-10-5.25 3.25-8.5 8.5 6.057 8.737 6.5 19.5 2.034 1.32 4.5 1-2.647 1.442-6 1a59.5 59.5 0 0 0-13-2q-.329 1.763 1 3a169 169 0 0 0 22 11q.125-4.24 2-8 1.152-1.144 1.5-3 .348 1.856 1.5 3-.993 8.013-6 14 .401-2.398-1-4a130 130 0 0 1-9.5-5l-7.5 7.5a86 86 0 0 0-11 6q.948 5.82 2 11.5 2.128 1.426 5 1-8.901 2.993-18 1l-2-2q1.56-6.523 0-13-9.317-3.318-14-12l-2-2q.71-2.11 3-2a2.43 2.43 0 0 1 2 .5q-1.58 2.082-.5 4.5 5.328 6.78 13.5 7.5 2.41-5.064 2.5-10.5a2165 2165 0 0 0-7-5 57 57 0 0 0-6.5 3q-1.445-.705 0-2 2.463-2.371 6-2v-3a1672 1672 0 0 1-27 3 19.2 19.2 0 0 0 1 6q.356 1.937-1 3-2.97-2.022-3.5-6-1-9 0-18 .417-1.374 1.5-2a84 84 0 0 0-1 16q3.352.442 6-1a41.7 41.7 0 0 1 9-1 41 41 0 0 1 .5-9q.417-1.374 1.5-2 1.257.513 1 2-1.332 3.831-1 8 6.535-.13 13-1-.326-4.381 2-8l3-2a185 185 0 0 0-11.5-23q-1.718-1.776-3.5 0-1.257-.513-1-2 1.48-3.879 6-4-1.83 2.675 0 5 3.216 3.933 4 9a94 94 0 0 1 23-.5 128 128 0 0 0 5-9.5q-1.95-2.326-5-3z"/>
  <path style="opacity:1" fill="#e2e3e3" d="M130.5 213.5a28.7 28.7 0 0 1 5 9l2 13h-11a190 190 0 0 1 4-22"/>
  <path style="opacity:1" fill="#c1c1c1" d="M135.5 222.5a28.7 28.7 0 0 0-5-9 8.4 8.4 0 0 1 .5-4q1.5-2 3 0a346 346 0 0 1 1.5 13"/>
  <path style="opacity:1" fill="#777" d="m142.5 203.5 9 4.5q1.526 1.574.5 3.5-5.935 7.836-15.5 9v-13q4.188-.183 6-4"/>
  <path style="opacity:1" fill="#767676" d="M111.5 206.5q1.52-1.76 4-2-1.445 1.295 0 2a57 57 0 0 1 6.5-3q3.484 2.478 7 5-.09 5.436-2.5 10.5-8.172-.72-13.5-7.5-1.08-2.418.5-4.5a2.43 2.43 0 0 0-2-.5"/>
  <path style="opacity:1" fill="#787878" d="M148.5 181.5q1.983-.255 3.5 1 4.587 7.348 4.5 16a73.3 73.3 0 0 1-12-1q-.004-4.762-3-8.5 3.925-3.663 7-7.5"/>
  <path style="opacity:1" fill="#9f9f9f" d="M129.5 187.5q14.23-1.021 12.5 13-4.222 8.503-13.5 5.5-10.45-10.078 1-18.5"/>
  <path style="opacity:1" fill="#777" d="M125.5 173.5a84 84 0 0 1 16 1q-1.66 5.322-5 10a21.1 21.1 0 0 1-9 1 24 24 0 0 0-4-9.5q.834-1.516 2-2.5"/>
  <path style="opacity:1" fill="#dcdcdc" d="M143.5 159.5q3.05.674 5 3a128 128 0 0 1-5 9.5 94 94 0 0 0-23 .5q-.784-5.067-4-9-.128-1.494 1-2.5 12.785-4.06 26-1.5"/>
  <path style="opacity:1" fill="#5f5e5f" d="M544.5 215.5q7.998 16.517 26 19-1.025 2.514-4 2-14.669-5.669-23-19-.257-1.487 1-2"/>
  <path style="opacity:1" fill="#585858" d="M95.5 208.5q1.401 1.602 1 4 5.917-1.943 12-4l2 2a21.1 21.1 0 0 0-10 3.5q-2.26 1.256-1.5 3.5 9.033 14.38 25.5 18l2 2q-23.705-3.722-32-26 1.356-1.063 1-3"/>
  <path style="opacity:1" fill="#696969" d="M165.5 215.5q1.401 1.602 1 4-8.274 12.079-22 17-2.872.426-5-1a60.6 60.6 0 0 0 17-7.5q6.67-4.886 9-12.5"/>
  <path style="opacity:1" fill="#989797" d="M584.5 222.5v8q-1.426 2.128-1 5-5.807.473-11-1-.426-2.872 1-5v5h9v-5z"/>
  <path style="opacity:1" fill="#313131" d="M584.5 230.5q-.401 2.398 1 4 0 2 2 2-.166.925-1 1.5l-8.5.5q-6.2.322-11.5-2 2.975.514 4-2h2q5.193 1.473 11 1-.426-2.872 1-5"/>
</svg>
