<svg id="svg" version="1.1" xmlns="http://www.w3.org/2000/svg" xmlns:xlink="http://www.w3.org/1999/xlink" width="400" height="400" viewBox="0, 0, 400,400"><g id="svgg"><path id="path0" d="M100.035 61.010 C 85.939 63.773,82.791 67.661,65.628 103.516 C 58.635 118.125,52.821 130.188,52.709 130.323 C 52.597 130.457,50.875 128.983,48.883 127.047 C 42.150 120.503,38.219 119.205,24.219 118.904 C 4.478 118.479,0.391 121.937,0.391 139.062 C 0.391 155.496,4.517 159.375,21.998 159.375 C 31.148 159.375,33.576 159.891,31.235 161.337 C 29.922 162.149,26.834 168.799,24.881 175.020 C 22.097 183.885,22.047 234.442,24.813 243.984 C 26.874 251.095,30.275 258.175,34.270 263.672 L 37.109 267.578 37.500 284.823 L 37.891 302.068 40.248 306.676 C 45.492 316.925,50.415 318.753,72.747 318.742 C 99.249 318.730,106.224 313.485,106.242 293.555 L 106.250 285.156 168.555 285.196 L 230.859 285.236 235.156 290.708 C 247.703 306.684,268.263 322.688,290.528 333.808 C 304.231 340.652,304.654 340.678,315.625 335.339 C 355.666 315.852,384.574 286.231,394.880 254.130 C 399.701 239.113,399.488 241.854,399.795 190.954 C 400.185 126.326,402.906 131.806,360.547 111.902 C 333.479 99.183,330.902 98.116,321.904 95.919 C 315.066 94.250,298.003 93.511,293.743 94.700 C 291.878 95.221,291.525 94.736,286.439 84.672 C 278.887 69.730,272.289 63.622,260.850 60.985 C 256.574 59.999,105.072 60.022,100.035 61.010 M259.853 74.592 C 266.703 76.626,279.700 93.442,277.873 97.906 C 277.665 98.413,265.453 104.453,250.734 111.328 C 216.873 127.144,212.869 130.426,210.070 144.654 L 209.172 149.219 133.551 149.219 L 57.931 149.219 61.707 141.992 C 63.783 138.018,71.022 123.164,77.792 108.984 C 92.467 78.247,92.940 77.555,101.278 74.582 C 105.942 72.919,254.252 72.928,259.853 74.592 M317.742 108.262 C 325.540 109.872,325.990 110.059,354.562 123.532 C 381.853 136.401,383.756 137.581,386.405 143.268 L 388.266 147.266 388.274 183.398 C 388.278 203.271,387.982 219.531,387.617 219.531 C 387.252 219.531,386.734 223.311,386.466 227.930 C 384.309 265.171,356.371 300.878,312.822 322.053 L 304.941 325.885 298.212 322.777 C 261.369 305.755,234.592 276.472,226.146 243.966 C 223.038 232.003,222.535 222.803,222.800 182.813 L 223.047 145.703 225.198 142.043 C 228.155 137.014,228.744 136.663,255.150 124.183 C 292.431 106.564,300.091 104.616,317.742 108.262 M294.716 125.353 C 292.025 125.967,286.400 128.043,282.216 129.968 C 262.052 139.242,243.371 148.521,241.699 150.092 L 239.844 151.835 239.854 190.566 C 239.867 239.419,240.818 244.969,252.397 263.761 C 262.713 280.504,294.398 306.250,304.688 306.250 C 311.178 306.250,329.996 293.594,342.969 280.503 C 357.299 266.044,364.562 253.274,368.039 236.430 C 370.213 225.896,370.319 152.682,368.164 150.093 C 366.618 148.235,324.476 128.193,317.930 126.202 C 311.968 124.389,300.747 123.979,294.716 125.353 M34.568 133.270 C 40.069 136.041,45.075 142.368,44.128 145.352 C 43.382 147.704,16.611 147.697,14.482 145.344 C 11.443 141.986,12.284 133.531,15.809 132.004 C 18.441 130.864,31.549 131.748,34.568 133.270 M316.797 139.289 C 318.516 139.923,328.294 144.511,338.526 149.484 L 357.129 158.526 356.827 195.083 C 356.490 235.766,356.576 235.016,350.815 247.358 C 343.340 263.371,326.164 281.025,309.137 290.197 L 304.855 292.503 298.591 288.717 C 275.894 274.996,261.375 258.023,255.328 238.141 C 253.651 232.628,253.579 231.085,253.347 195.313 L 253.107 158.203 257.608 156.131 C 260.084 154.991,269.552 150.490,278.648 146.129 C 298.838 136.450,305.750 135.211,316.797 139.289 M209.375 188.649 L 209.375 215.579 173.849 215.797 L 138.323 216.016 136.562 217.777 C 134.076 220.264,134.111 225.389,136.628 227.427 C 138.361 228.830,140.291 228.906,174.218 228.906 L 209.982 228.906 210.408 231.445 C 210.643 232.842,211.064 235.479,211.345 237.305 L 211.856 240.625 175.155 240.625 C 133.367 240.625,134.801 240.408,134.801 246.729 C 134.801 253.476,132.536 253.125,176.102 253.125 L 214.461 253.125 216.329 258.008 C 217.357 260.693,219.209 264.919,220.446 267.397 L 222.694 271.904 144.355 271.694 L 66.016 271.484 59.841 268.536 C 40.347 259.228,34.766 246.061,34.766 209.375 C 34.766 179.904,35.438 176.532,43.524 165.430 L 46.227 161.719 127.801 161.719 L 209.375 161.719 209.375 188.649 M58.164 183.911 C 47.622 188.503,46.374 215.892,56.461 221.281 C 60.990 223.701,106.404 224.486,112.270 222.246 C 122.527 218.329,118.109 198.171,105.517 191.432 C 98.374 187.609,62.687 181.941,58.164 183.911 M332.300 190.067 C 331.373 190.589,323.733 199.978,315.323 210.932 C 306.912 221.887,299.731 230.949,299.364 231.071 C 298.997 231.194,294.571 228.135,289.527 224.275 C 278.210 215.614,273.796 214.481,271.088 219.542 C 268.429 224.510,269.890 226.407,285.474 238.229 C 298.207 247.888,300.240 248.837,303.945 246.854 C 306.574 245.447,342.188 198.393,342.188 196.326 C 342.188 190.585,337.099 187.364,332.300 190.067 M83.021 198.720 C 99.355 202.291,101.028 203.045,103.610 208.008 L 104.728 210.156 84.850 210.156 C 60.704 210.156,62.500 210.701,62.500 203.381 C 62.500 196.520,63.366 194.335,65.852 194.931 C 66.801 195.158,74.527 196.863,83.021 198.720 M62.859 283.166 C 66.172 284.026,71.333 284.375,80.741 284.375 L 93.967 284.375 93.561 291.485 C 92.847 304.016,90.570 305.466,71.602 305.468 C 51.822 305.469,50.653 304.523,50.131 288.087 L 49.815 278.127 54.009 280.042 C 56.316 281.096,60.298 282.502,62.859 283.166 " stroke="none" fill="#000000" fill-rule="evenodd"></path></g></svg>